External Loads File
version=1
nRows=85
nColumns=13
Range=5.000000e-03-10 seconds
endheader
time 	forceRightX 	forceRightY 	forceRightZ 	pointRightX 	pointRightY 	pointRightZ 	forceLeftX 	forceLeftY 	forceLeftZ 	pointLeftX 	pointLeftY 	pointLeftZ 		
5.005000 -38.073695 32.424433 -0.000000 0.251821 0.476565 -0.129383 52.884115 735.328773 -0.000000 0.363774 0.160825 -0.367323
5.010000 -43.478356 41.499044 -0.000000 0.260507 0.481624 -0.129282 73.741529 691.018580 -0.000000 0.354998 0.156747 -0.367130
5.015000 -47.591445 50.162202 -0.000000 0.269338 0.486143 -0.129121 91.498904 643.019501 -0.000000 0.345924 0.153429 -0.366905
5.020000 -50.673817 57.925845 -0.000000 0.278229 0.490270 -0.129058 106.298615 593.229100 -0.000000 0.336627 0.150663 -0.366639
5.025000 -53.021731 64.459680 -0.000000 0.287203 0.493675 -0.129006 118.415727 543.420431 -0.000000 0.327114 0.148574 -0.366357
5.030000 -54.867418 69.675483 -0.000000 0.296307 0.496455 -0.128686 128.439848 494.993911 -0.000000 0.317373 0.147114 -0.366082
5.035000 -56.484856 73.602734 -0.000000 0.305270 0.498605 -0.128915 136.085506 449.117832 -0.000000 0.307642 0.146264 -0.365789
5.040000 -57.945027 76.543926 -0.000000 0.314187 0.499985 -0.128869 142.008368 406.236914 -0.000000 0.297867 0.146012 -0.365530
5.045000 -59.271506 78.917579 -0.000000 0.323180 0.500759 -0.129016 146.630108 366.375424 -0.000000 0.288067 0.146496 -0.365218
5.050000 -60.631881 81.082309 -0.000000 0.331752 0.500750 -0.129030 149.517366 329.566634 -0.000000 0.278375 0.147490 -0.365060
5.055000 -61.994464 83.587773 -0.000000 0.340470 0.499979 -0.128890 151.196862 295.292805 -0.000000 0.268828 0.148061 -0.364908
5.060000 -63.417649 86.957091 -0.000000 0.348910 0.498649 -0.128807 151.793524 263.119778 -0.000000 0.259663 0.151763 -0.364510
5.065000 -65.073634 91.633657 -0.000000 0.357139 0.496334 -0.128591 151.111400 232.840934 -0.000000 0.250677 0.154823 -0.364235
5.070000 -67.001735 98.118326 -0.000000 0.365155 0.493218 -0.128403 149.366323 204.126492 -0.000000 0.241975 0.158476 -0.363973
5.075000 -69.265288 106.830932 -0.000000 0.372829 0.489485 -0.128067 146.670757 176.844344 -0.000000 0.233469 0.162762 -0.363954
5.080000 -71.902281 118.127072 -0.000000 0.380246 0.484992 -0.127786 143.206164 150.970853 -0.000000 0.225343 0.167611 -0.363643
5.085000 -74.906983 132.280787 -0.000000 0.387306 0.479736 -0.127363 139.226374 126.554009 -0.000000 0.217488 0.173091 -0.363282
5.090000 -78.292201 149.398329 -0.000000 0.394030 0.473719 -0.126848 134.955106 103.774123 -0.000000 0.209949 0.179172 -0.363055
5.095000 -82.053919 169.371980 -0.000000 0.400471 0.466873 -0.126405 130.606745 82.873373 -0.000000 0.202802 0.185730 -0.362841
5.100000 -86.173136 191.836220 -0.000000 0.406700 0.459432 -0.126001 126.378466 64.111140 -0.000000 0.196062 0.192772 -0.362749
5.105000 -90.683902 216.171527 -0.000000 0.412530 0.451475 -0.125651 122.470900 47.744658 -0.000000 0.189697 0.200295 -0.362954
5.110000 -95.510107 241.679675 -0.000000 0.418065 0.443060 -0.125421 119.132005 33.881340 -0.000000 0.183823 0.208370 -0.362984
5.115000 -100.807201 267.566606 -0.000000 0.422837 0.434101 -0.124953 116.530634 22.636388 -0.000000 0.178356 0.216778 -0.362987
5.120000 -105.840457 293.447469 -0.000000 0.427898 0.424573 -0.124960 114.827782 13.630875 -0.000000 0.173308 0.225495 -0.362882
5.125000 -110.609647 318.756853 -0.000000 0.432482 0.414595 -0.124935 114.002682 6.765218 -0.000000 0.168327 0.234602 -0.361817
5.130000 -115.567180 342.947523 -0.000000 0.437009 0.404511 -0.124944 113.987064 1.983083 -0.000000 0.164333 0.243984 -0.361796
5.135000 -119.929680 366.093641 -0.000000 0.441793 0.394145 -0.125673 114.668351 -1.282895 -0.000000 0.160869 0.253706 -0.361721
5.140000 -124.709949 387.846059 -0.000000 0.444965 0.383621 -0.125711 115.867932 -3.048883 -0.000000 0.157971 0.263655 -0.361584
5.145000 -129.050585 408.622810 -0.000000 0.447773 0.373084 -0.125791 117.359299 -3.911721 -0.000000 0.155626 0.273925 -0.361534
5.150000 -132.132465 428.930374 -0.000000 0.450259 0.361968 -0.125803 118.882042 -4.379971 -0.000000 0.153843 0.284379 -0.361449
5.155000 -134.547009 448.875845 -0.000000 0.452365 0.350906 -0.125745 120.193980 -4.495966 -0.000000 0.152661 0.295008 -0.361340
5.160000 -135.934556 468.838398 -0.000000 0.453960 0.339683 -0.125843 121.075766 -4.489908 -0.000000 0.152073 0.305690 -0.361233
5.165000 -136.204758 489.053653 -0.000000 0.455027 0.328418 -0.125703 121.365884 -4.468269 -0.000000 0.152137 0.316411 -0.361156
5.170000 -135.322009 509.645939 -0.000000 0.455632 0.317266 -0.125371 120.957068 -4.543795 -0.000000 0.152863 0.327165 -0.361088
5.175000 -132.735009 530.742059 -0.000000 0.455379 0.306094 -0.125714 119.769951 -4.985545 -0.000000 0.154147 0.337973 -0.360961
5.180000 -128.183611 552.255281 -0.000000 0.453056 0.295083 -0.123854 117.748576 -5.999144 -0.000000 0.156111 0.348722 -0.360916
5.185000 -120.302317 574.220160 -0.000000 0.451316 0.283356 -0.124514 114.829722 -8.002277 -0.000000 0.158674 0.359505 -0.360964
5.190000 -111.872352 595.677597 -0.000000 0.449278 0.272595 -0.124665 110.990777 -10.536257 -0.000000 0.161903 0.370331 -0.361017
5.195000 -102.725778 616.323250 -0.000000 0.446568 0.262092 -0.124323 106.179674 -13.752388 -0.000000 0.165779 0.380456 -0.360974
5.200000 -91.245439 635.985522 -0.000000 0.443186 0.251904 -0.124300 100.317814 -17.976733 -0.000000 0.170326 0.390734 -0.360857
5.205000 -77.724444 654.044866 -0.000000 0.439187 0.241672 -0.124340 93.374443 -23.107781 -0.000000 0.175311 0.400777 -0.360623
5.210000 -62.854732 669.788399 -0.000000 0.434539 0.231708 -0.124479 85.376215 -28.930194 -0.000000 0.180839 0.410458 -0.360560
5.215000 -47.335007 682.505599 -0.000000 0.429402 0.222497 -0.124205 76.419282 -35.204399 -0.000000 0.186940 0.419941 -0.360501
5.220000 -30.509719 691.581172 -0.000000 0.423658 0.213384 -0.124325 66.572926 -41.812123 -0.000000 0.193412 0.429051 -0.360349
5.225000 -14.573222 696.274805 -0.000000 0.418175 0.204850 -0.124737 56.082730 -48.308564 -0.000000 0.200308 0.437807 -0.359959
5.230000 4.420453 696.069609 -0.000000 0.410652 0.196906 -0.124176 44.781652 -54.731483 -0.000000 0.208019 0.446055 -0.360105
5.235000 19.845696 690.478812 -0.000000 0.404307 0.189391 -0.124611 33.292719 -60.316848 -0.000000 0.215612 0.453890 -0.360119
5.240000 37.557871 679.202114 -0.000000 0.395858 0.182528 -0.124044 21.302059 -65.134365 -0.000000 0.223773 0.461045 -0.360418
5.245000 52.434634 662.537998 -0.000000 0.387926 0.176159 -0.124051 9.458194 -68.772995 -0.000000 0.232042 0.467688 -0.360170
5.250000 64.048707 641.171766 -0.000000 0.380564 0.170518 -0.124544 -1.964292 -71.271465 -0.000000 0.240440 0.473819 -0.360048
5.255000 75.838325 615.761471 -0.000000 0.371989 0.165621 -0.124542 -13.172418 -72.737782 -0.000000 0.249163 0.479237 -0.360125
5.260000 86.643340 587.719494 -0.000000 0.363101 0.161244 -0.124498 -23.925970 -73.291412 -0.000000 0.258112 0.484046 -0.360491
5.265000 96.231975 558.684478 -0.000000 0.354117 0.157483 -0.124332 -34.074256 -73.109444 -0.000000 0.267117 0.487997 -0.360684
5.270000 107.787647 529.743209 -0.000000 0.343576 0.154415 -0.124403 -43.886301 -72.124036 -0.000000 0.276205 0.491442 -0.360882
5.275000 118.053060 503.016055 -0.000000 0.333996 0.151992 -0.124377 -52.756657 -70.705184 -0.000000 0.285288 0.494268 -0.361143
5.280000 129.777172 479.107431 -0.000000 0.324207 0.150245 -0.124395 -60.907272 -68.781029 -0.000000 0.294453 0.496409 -0.361405
5.285000 143.267224 458.381862 -0.000000 0.314315 0.149099 -0.124349 -68.280866 -66.386895 -0.000000 0.303584 0.497703 -0.361827
5.290000 159.643124 440.034700 -0.000000 0.303797 0.148735 -0.124504 -75.004730 -63.335440 -0.000000 0.312815 0.498110 -0.362280
5.295000 176.736526 423.562012 -0.000000 0.293735 0.149004 -0.124464 -80.860500 -59.856438 -0.000000 0.321660 0.497954 -0.362607
5.300000 194.586635 407.186819 -0.000000 0.284014 0.149796 -0.124552 -86.113263 -55.685667 -0.000000 0.330507 0.497069 -0.362943
5.305000 211.736203 389.367381 -0.000000 0.274641 0.151314 -0.124637 -90.938217 -50.652142 -0.000000 0.338941 0.495538 -0.363166
5.310000 226.859565 368.388725 -0.000000 0.265707 0.153578 -0.124612 -95.599882 -44.446487 -0.000000 0.346977 0.493270 -0.363467
5.315000 240.210380 341.446982 -0.000000 0.255923 0.156416 -0.124848 -100.566345 -36.202339 -0.000000 0.355193 0.490150 -0.363757
5.320000 247.330658 309.124192 -0.000000 0.247346 0.159928 -0.124503 -105.759922 -26.267677 -0.000000 0.362862 0.486136 -0.364184
5.325000 248.417004 269.652661 -0.000000 0.237995 0.164046 -0.124736 -111.561901 -13.676923 -0.000000 0.370151 0.481538 -0.364561
5.330000 240.869037 224.928784 -0.000000 0.229853 0.168708 -0.124367 -118.025212 1.393926 -0.000000 0.377149 0.476143 -0.364868
5.335000 225.745335 175.988332 -0.000000 0.221203 0.174029 -0.124584 -125.282589 19.754467 -0.000000 0.383867 0.470165 -0.365196
5.340000 203.760579 127.409946 -0.000000 0.213466 0.179858 -0.124447 -133.437754 41.024012 -0.000000 0.390097 0.463469 -0.365612
5.345000 178.352420 82.656701 -0.000000 0.206002 0.186284 -0.124230 -142.483329 65.396000 -0.000000 0.396147 0.456218 -0.366012
5.350000 152.599941 44.806981 -0.000000 0.198902 0.193184 -0.124185 -152.375615 92.479282 -0.000000 0.401848 0.448209 -0.366479
5.355000 128.886249 15.183040 -0.000000 0.192323 0.200606 -0.124174 -163.007228 121.727035 -0.000000 0.407457 0.439822 -0.366888
5.360000 108.666252 -6.420652 -0.000000 0.186128 0.208715 -0.124086 -174.044793 152.724832 -0.000000 0.412645 0.430633 -0.367347
5.365000 92.599474 -20.730817 -0.000000 0.180458 0.217073 -0.124112 -185.475831 184.621983 -0.000000 0.417463 0.420999 -0.367845
5.370000 80.759628 -29.197502 -0.000000 0.175177 0.225735 -0.124199 -196.924639 217.039617 -0.000000 0.422167 0.410988 -0.368312
5.375000 72.768551 -33.343688 -0.000000 0.170487 0.235288 -0.124270 -207.865895 249.708857 -0.000000 0.426665 0.400672 -0.368590
5.380000 68.129174 -34.281237 -0.000000 0.166364 0.244706 -0.124400 -218.812158 281.561609 -0.000000 0.430823 0.390255 -0.368786
5.385000 66.016328 -33.300001 -0.000000 0.162806 0.254739 -0.124466 -228.904562 312.818014 -0.000000 0.434494 0.379650 -0.368911
5.390000 65.703835 -31.124908 -0.000000 0.159939 0.264835 -0.124553 -238.410776 342.978925 -0.000000 0.437715 0.368963 -0.369040
5.395000 66.409357 -28.434822 -0.000000 0.157710 0.275237 -0.124691 -246.794408 372.331192 -0.000000 0.440493 0.358189 -0.369036
5.400000 67.468507 -25.675743 -0.000000 0.156271 0.285891 -0.124630 -253.740150 401.120810 -0.000000 0.442949 0.347225 -0.368873
5.405000 68.388803 -23.035385 -0.000000 0.155294 0.296477 -0.124801 -259.694644 429.206781 -0.000000 0.444765 0.336244 -0.368847
5.410000 68.739924 -20.763043 -0.000000 0.154940 0.307309 -0.124938 -264.092145 457.145314 -0.000000 0.446017 0.325256 -0.368816
5.415000 68.237207 -18.899890 -0.000000 0.155279 0.318140 -0.124995 -267.072271 485.082870 -0.000000 0.446691 0.314231 -0.368722
5.420000 66.672811 -17.461672 -0.000000 0.156250 0.328914 -0.125233 -268.546786 513.286046 -0.000000 0.446780 0.303194 -0.369023
5.425000 63.903314 -16.543323 -0.000000 0.157744 0.340246 -0.125511 -267.390588 542.388413 -0.000000 0.446432 0.292287 -0.368583
